HIERARCHY
ROOT Hips
{
  OFFSET -8.24734 100.575 -152.273
  CHANNELS 6 Xposition Yposition Zposition Zrotation Xrotation Yrotation
  JOINT RightUpLeg
  {
    OFFSET -8.9458 -8.66707 0.101652
    CHANNELS 3 Zrotation Xrotation Yrotation
    JOINT RightLeg
    {
      OFFSET 0 -44.4227 1.3727
      CHANNELS 3 Zrotation Xrotation Yrotation
      JOINT RightFoot
      {
        OFFSET 0.253549 -42.0924 -1.46059
        CHANNELS 3 Zrotation Xrotation Yrotation
        JOINT RightToes
        {
          OFFSET 0.04 -4.41509 8.4991
          CHANNELS 3 Zrotation Xrotation Yrotation
          End Site
          {
            OFFSET -0.08 -0.137448 9.77979
          }
        }
      }
    }
  }
  JOINT Spine
  {
    OFFSET 0 11.8905 0
    CHANNELS 3 Zrotation Xrotation Yrotation
    JOINT Spine1
    {
      OFFSET 0 25.6574 0.127663
      CHANNELS 3 Zrotation Xrotation Yrotation
      JOINT HEad
      {
        OFFSET 0 8.73416 0.011341
        CHANNELS 3 Zrotation Xrotation Yrotation
        End Site
        {
          OFFSET -0.29 12.7742 2.51395
        }
      }
      JOINT LeftShoulder1
      {
        OFFSET 8.99 -0.362252 -0.22
        CHANNELS 3 Zrotation Xrotation Yrotation
        JOINT LeftArm
        {
          OFFSET 10.2827 -0.00338 0.322123
          CHANNELS 3 Zrotation Xrotation Yrotation
          JOINT LeftForeArm
          {
            OFFSET 32.7669 0.099144 -1.42434
            CHANNELS 3 Zrotation Xrotation Yrotation
            JOINT LeftHand
            {
              OFFSET 27.5643 0.085362 1.02216
              CHANNELS 3 Zrotation Xrotation Yrotation
              End Site
              {
                OFFSET 16.7443 -0.6 1.50291
              }
            }
          }
        }
      }
      JOINT RightShoulder
      {
        OFFSET -8.99 -0.362252 -0.22
        CHANNELS 3 Zrotation Xrotation Yrotation
        JOINT RightArm
        {
          OFFSET -10.2827 -0.00338 0.322123
          CHANNELS 3 Zrotation Xrotation Yrotation
          JOINT RightForeArm
          {
            OFFSET -32.8971 0.099144 -1.42434
            CHANNELS 3 Zrotation Xrotation Yrotation
            JOINT RightHand
            {
              OFFSET -27.4921 0.085362 1.02216
              CHANNELS 3 Zrotation Xrotation Yrotation
              End Site
              {
                OFFSET -16.6312 -0.6 1.50291
              }
            }
          }
        }
      }
    }
  }
  JOINT LeftUpLeg
  {
    OFFSET 8.9458 -8.66707 0.101652
    CHANNELS 3 Zrotation Xrotation Yrotation
    JOINT LeftLeg
    {
      OFFSET 0 -44.4227 1.3727
      CHANNELS 3 Zrotation Xrotation Yrotation
      JOINT LeftFoot
      {
        OFFSET -0.253549 -42.0924 -1.46059
        CHANNELS 3 Zrotation Xrotation Yrotation
        JOINT LeftToes
        {
          OFFSET -0.04 -4.41509 8.4991
          CHANNELS 3 Zrotation Xrotation Yrotation
          End Site
          {
            OFFSET 0.08 -0.047448 9.77979
          }
        }
      }
    }
  }
}
MOTION
Frames:	19
Frame Time:	0.0166667
-10.8668 99.0583 19.8521 0.0277901 1.1063 -8.43193 -2.91843 -7.81767 -9.6582 -7.45107 54.2355 16.9568 6.9852 -13.8387 0.444396 11.1528 13.8067 36.7339 2.95202 1.96734 2.90657 14.9785 19.35 -2.63929 -9.68938 -11.8985 7.24515 7.95139e-016 0 -1.59028e-015 -90.5547 -16.8293 -14.9712 -27.0269 12.5842 -9.70048 0.368473 9.90896 -0.00117926 -8.07229 -0.0102747 -4.65353 79.7565 -6.58541 14.4482 27.676 13.6583 20.1773 -0.369625 9.91382 0.00119886 -4.00525 -33.5852 -4.11896 -3.86594 27.807 35.679 -21.3164 -1.41801 0.584044 6.44062e-013 1.88957e-011 -6.8541e-012 
-10.7048 99.241 21.682 0.224458 1.18084 -8.81183 -3.3542 -8.38322 -8.62779 -8.41171 55.2879 18.0234 8.06857 -11.097 0.348052 8.61884 22.0145 38.0258 2.64904 2.06686 2.77147 14.4827 19.2157 -2.5584 -9.94539 -12.0372 7.47099 3.57812e-015 -3.18055e-015 -1.59028e-015 -90.5126 -16.6365 -15.5594 -26.9191 12.4825 -9.1231 0.368473 9.90896 -0.00117926 -8.0239 -0.0098522 -4.54336 80.2903 -7.37361 14.5869 27.5181 13.6362 19.6142 -0.369625 9.91382 0.00119886 -4.99443 -33.1561 -8.54089 -5.36922 28.5465 40.652 -21.205 -2.23302 0.437784 6.41677e-013 1.88909e-011 -6.8541e-012 
-10.5632 99.3046 23.4778 0.281764 1.23903 -9.1452 -3.5212 -9.16697 -7.2206 -9.28674 56.382 19.3587 9.24608 -7.75912 0.15631 5.47229 29.6148 38.2134 2.57654 2.10381 2.63882 14.0022 19.4149 -2.51855 -10.156 -12.5429 7.67505 1.98785e-015 3.18055e-015 1.59028e-015 -90.4905 -16.282 -16.6713 -26.8098 12.4035 -8.6299 0.368473 9.90896 -0.00117926 -7.99672 -0.00960957 -4.48982 81.0196 -8.10233 15.213 27.2478 13.6304 19.038 -0.369625 9.91382 0.00119886 -5.01175 -32.8789 -8.0993 -6.0068 29.9862 40.5826 -21.4044 -3.76633 0.146787 6.46448e-013 1.88909e-011 -6.8541e-012 
-10.4271 99.376 25.2216 0.329807 1.26702 -9.40499 -3.55378 -10.0232 -5.45081 -10.1192 57.3884 20.9968 10.5873 -4.10554 -0.12742 2.89079 35.6586 37.6517 2.53968 2.12548 2.50724 13.5342 19.7578 -2.49939 -10.3556 -13.0496 7.84883 -1.19271e-015 -6.36111e-015 3.18055e-015 -90.4482 -15.7174 -18.0492 -26.7312 12.3484 -8.26395 0.368473 9.90896 -0.00117926 -8.00518 -0.00957599 -4.45599 81.8313 -8.6967 16.0458 26.9536 13.6191 18.4399 -0.369625 9.91382 0.00119886 -4.77466 -32.4937 -5.87727 -6.07381 31.4527 38.6945 -21.677 -5.41067 -0.165262 6.41677e-013 1.88925e-011 -6.84455e-012 
-10.2799 99.5588 26.9067 0.467797 1.18637 -9.58752 -3.56329 -10.6714 -3.20651 -10.9317 58.0635 23.2092 12.2934 -0.218616 -0.555264 1.73043 37.9555 36.3347 2.39557 2.16522 2.36233 13.0573 20.1777 -2.49327 -10.5642 -13.1872 8.01302 -3.97569e-015 6.36111e-015 -0 -90.332 -14.9035 -19.5286 -26.7208 12.3045 -8.00927 0.368473 9.90896 -0.00117926 -8.06606 -0.00978073 -4.3951 82.6362 -9.0685 16.9023 26.6944 13.5683 17.7403 -0.369625 9.91382 0.00119886 -4.75042 -31.5859 -3.54344 -5.7162 32.1226 36.6968 -21.5986 -6.75757 -0.422021 6.42472e-013 1.88925e-011 -6.8541e-012 
-10.1408 99.7922 28.5126 0.65002 1.12115 -9.65941 -3.51726 -11.376 -0.75367 -11.5639 58.7006 25.2826 13.9091 3.32099 -1.00847 1.30219 38.4607 34.1607 2.17118 2.21559 2.23645 12.6484 20.5882 -2.50012 -10.7938 -13.2044 8.11217 3.97569e-015 -9.54166e-015 -0 -90.1492 -13.8389 -21.0902 -26.7824 12.3038 -8.00997 0.368473 9.90896 -0.00117926 -8.17547 -0.0102513 -4.38996 83.3537 -9.14539 17.7641 26.5093 13.521 17.1806 -0.369625 9.91382 0.00119886 -4.95675 -30.495 -1.77736 -5.37189 32.3178 35.0558 -21.5085 -7.86644 -0.635772 6.43267e-013 1.88909e-011 -6.84773e-012 
-10.0295 100.063 29.9984 0.879824 1.18844 -9.56696 -3.3749 -12.3345 1.76363 -11.7896 59.5389 26.6737 15.0104 6.18813 -1.44123 1.19076 38.3018 31.5023 1.82187 2.28513 2.16442 12.3944 20.8569 -2.51749 -11.0954 -13.2274 8.07555 -1.59028e-015 -3.18055e-015 -0 -89.872 -12.4147 -22.6942 -26.9688 12.3755 -8.45492 0.368473 9.90896 -0.00117926 -8.37654 -0.0110149 -4.53685 83.8886 -8.80659 18.5467 26.4685 13.5158 16.9973 -0.369625 9.91382 0.00119886 -5.46871 -29.5124 -2.29012 -5.68326 32.0954 35.3441 -21.6574 -8.56569 -0.774326 6.37701e-013 1.88957e-011 -6.8541e-012 
-9.92833 100.332 31.4183 1.1118 1.33043 -9.36731 -3.18869 -13.4869 4.10821 -11.7793 60.6714 27.1501 15.5147 7.53569 -1.67672 0.998333 38.0439 28.5639 1.4192 2.35929 2.12453 12.2437 21.0562 -2.54428 -11.3643 -13.2531 7.97264 7.95139e-016 0 1.59028e-015 -89.5508 -10.9337 -24.2562 -27.1641 12.5099 -9.19519 0.368473 9.90896 -0.00117926 -8.545 -0.0121006 -4.74863 84.162 -8.1243 19.2669 26.546 13.5424 17.1243 -0.369625 9.91382 0.00119886 -6.00056 -28.5912 -3.35455 -6.12615 31.723 36.051 -21.8827 -9.14039 -0.892181 6.34521e-013 1.88925e-011 -6.8541e-012 
-9.82144 100.552 32.8181 1.28994 1.54866 -9.10203 -3.04015 -14.8797 6.03597 -11.397 62.4257 25.7404 15.0429 5.64302 -1.39257 0.0470552 39.8087 25.7112 1.02609 2.42582 2.10709 12.1742 21.1975 -2.57539 -11.4821 -13.3314 7.86706 -2.38542e-015 -3.18055e-015 -0 -89.2739 -9.65809 -25.6722 -27.2691 12.6828 -10.0536 0.368473 9.90896 -0.00117926 -8.53229 -0.0144822 -4.97173 84.0018 -7.03406 19.9111 26.7755 13.6071 17.6429 -0.369625 9.91382 0.00119886 -6.38883 -27.789 -3.72368 -6.36284 31.4814 36.0457 -22.1181 -9.84875 -1.04098 6.47243e-013 1.88909e-011 -6.84773e-012 
-9.72377 100.73 34.1812 1.44629 1.78253 -8.76427 -2.91549 -16.4357 7.40803 -10.7535 64.2718 23.5995 14.0796 2.80747 -0.969803 -0.223904 40.4257 22.2341 0.623765 2.48623 2.11087 12.1839 21.3322 -2.62032 -11.5415 -13.429 7.70567 -6.36111e-015 3.18055e-015 1.59028e-015 -89.0646 -8.54592 -26.9578 -27.2762 12.9618 -11.306 0.368473 9.90896 -0.00117926 -8.45468 -0.0178411 -5.20169 83.6145 -5.82078 20.503 27.0397 13.6898 18.3482 -0.369625 9.91382 0.00119886 -6.74831 -27.0585 -3.87316 -6.4982 31.3424 35.7601 -22.3493 -10.5993 -1.20071 6.44857e-013 1.88909e-011 -6.85091e-012 
-9.6462 100.856 35.5027 1.59487 1.96276 -8.34698 -2.91553 -18.1163 7.84425 -10.452 65.7458 22.1618 12.9651 1.22126 -0.721922 0.751756 35.8381 18.2081 0.220979 2.53727 2.13318 12.2743 21.5232 -2.68993 -11.6056 -13.5345 7.44758 -1.59028e-015 3.18055e-015 -0 -88.9955 -7.67164 -28.0511 -27.0931 13.4319 -13.3338 0.368473 9.90896 -0.00117926 -8.38289 -0.0214124 -5.42303 83.1554 -4.72263 21.0597 27.2329 13.7681 19.045 -0.369625 9.91382 0.00119886 -7.13593 -26.3617 -3.78027 -6.46836 31.3843 35.1438 -22.5153 -11.3952 -1.36891 6.48038e-013 1.88941e-011 -6.85091e-012 
-9.58511 100.929 36.7933 1.73922 2.11594 -7.8919 -2.9831 -19.8923 7.76525 -10.1736 67.0509 20.7361 11.5921 -0.515425 -0.497933 1.26981 29.999 14.1184 -0.201682 2.58091 2.16863 12.4141 21.7467 -2.77547 -11.6444 -13.631 7.11936 7.95139e-016 3.18055e-015 -1.59028e-015 -89.0206 -6.93383 -29.0722 -26.8017 13.9689 -15.6604 0.368473 9.90896 -0.00117926 -8.30482 -0.0249475 -5.61522 82.6569 -3.79544 21.5661 27.3593 13.8604 19.7846 -0.369625 9.91382 0.00119886 -7.53191 -25.7207 -3.67771 -6.42149 31.5608 34.4974 -22.6893 -12.2105 -1.54453 6.37701e-013 1.88925e-011 -6.85091e-012 
-9.54322 100.941 38.0534 1.88976 2.26842 -7.4258 -3.04752 -21.7443 7.45262 -9.69291 68.2863 19.211 9.98028 -3.41153 -0.217079 0.690381 26.9515 9.38399 -0.684286 2.62073 2.21591 12.5806 21.9841 -2.87229 -11.6387 -13.6976 6.71331 -7.95139e-016 -3.18055e-015 -0 -89.1084 -6.27309 -30.1123 -26.4821 14.5138 -17.9744 0.368473 9.90896 -0.00117926 -8.21514 -0.0284499 -5.75184 82.203 -3.23489 22.0009 27.3677 13.9822 20.5593 -0.369625 9.91382 0.00119886 -7.92912 -25.1816 -3.88681 -6.51171 31.8682 34.2105 -22.9499 -13.0151 -1.72609 6.46448e-013 1.88941e-011 -6.85728e-012 
-9.51238 100.909 39.3095 2.04211 2.3514 -6.98664 -3.11681 -23.5605 6.96601 -9.031 69.2601 17.0081 8.16902 -6.4487 0.011467 0.0604229 22.8122 3.83403 -1.15598 2.6487 2.26007 12.7498 22.2828 -2.97891 -11.6164 -13.734 6.29188 1.59028e-015 0 -0 -89.2332 -5.65649 -31.1974 -26.1439 15.0142 -20.1394 0.368473 9.90896 -0.00117926 -8.16433 -0.0304043 -5.83507 81.8131 -2.85062 22.3877 27.3167 14.1186 21.352 -0.369625 9.91382 0.00119886 -8.29462 -24.6364 -4.09559 -6.65819 32.2842 33.9776 -23.2187 -13.8242 -1.91197 6.41677e-013 1.88941e-011 -6.86046e-012 
-9.47721 100.833 40.5842 2.20604 2.27136 -6.61593 -3.17055 -25.2164 6.39552 -8.04899 69.8425 13.0033 5.9888 -8.97926 0.0741209 -1.1105 13.7251 -2.86728 -1.55134 2.65584 2.28469 12.9002 22.7569 -3.10572 -11.6051 -13.7721 5.89228 7.95139e-016 3.18055e-015 7.95139e-016 -89.3783 -5.02037 -32.4877 -25.8471 15.3978 -21.7949 0.368473 9.90896 -0.00117926 -8.2276 -0.0288459 -5.868 81.5145 -2.49464 22.7863 27.2504 14.2616 22.1474 -0.369625 9.91382 0.00119886 -8.62204 -23.9964 -4.04049 -6.80511 32.8457 33.5581 -23.4395 -14.6483 -2.10103 6.44062e-013 1.88941e-011 -6.85728e-012 
-9.46222 100.758 41.889 2.35765 2.12815 -6.33015 -3.1114 -26.7185 5.95912 -7.12978 69.7645 8.82392 3.96672 -10.9003 0.0581246 -3.74692 3.71403 -8.90944 -1.89393 2.64865 2.29293 13.0031 23.1879 -3.21329 -11.5846 -13.6957 5.58312 7.95139e-016 0 7.95139e-016 -89.4579 -4.41046 -33.6744 -25.6116 15.7385 -23.2781 0.368473 9.90896 -0.00117926 -8.32539 -0.025327 -5.82142 81.3419 -2.24475 23.0755 27.1648 14.4085 22.9309 -0.369625 9.91382 0.00119886 -8.86217 -23.25 -3.91484 -7.02152 33.3618 33.1381 -23.6233 -15.4715 -2.2903 6.49231e-013 1.88909e-011 -6.8541e-012 
-9.50096 100.742 43.2576 2.48274 1.98822 -6.20547 -2.75188 -28.0179 5.95314 -7.03511 68.7643 6.05596 2.6684 -11.6225 0.00265761 -5.94856 -4.89668 -12.9626 -2.20338 2.63056 2.27723 12.9805 23.3368 -3.24741 -11.5372 -13.3278 5.50907 -2.78299e-015 0 7.95139e-016 -89.3642 -3.88135 -34.4108 -25.4681 16.0829 -24.8952 0.368473 9.90896 -0.00117926 -8.4089 -0.0217145 -5.59887 81.3739 -2.15202 23.0854 27.0757 14.5575 23.6919 -0.369625 9.91382 0.00119886 -8.93451 -22.3049 -3.88538 -7.45648 33.5743 32.8695 -23.7388 -16.3164 -2.48109 6.4605e-013 1.88941e-011 -6.84455e-012 
-9.55093 100.74 44.6456 2.55115 1.85966 -6.10387 -2.2134 -29.1557 6.2918 -7.41864 67.1439 4.6249 1.8667 -11.9576 -0.0585237 -7.85397 -10.6493 -16.1268 -2.42622 2.6018 2.25327 12.95 23.3809 -3.25777 -11.4811 -12.8843 5.48028 7.95139e-016 3.18055e-015 1.59028e-015 -89.1967 -3.31955 -34.9733 -25.382 16.3869 -26.3935 0.368473 9.90896 -0.00117926 -8.46153 -0.0198646 -5.40513 81.5107 -2.14688 23.0222 26.9695 14.7008 24.4015 -0.369625 9.91382 0.00119886 -8.90684 -21.3148 -3.76078 -7.8504 33.713 32.6225 -23.8545 -17.0793 -2.65878 6.46448e-013 1.88909e-011 -6.85091e-012 
-9.57119 100.725 46.0102 2.51416 1.78378 -5.88025 -1.55403 -30.1665 7.04702 -7.65502 65.1017 4.8517 1.61719 -12.6959 -0.0654562 -8.96501 -9.82095 -18.3495 -2.48033 2.56147 2.23527 13.0306 23.4407 -3.28371 -11.4292 -12.5366 5.32866 -3.57812e-015 -6.36111e-015 1.59028e-015 -89.0085 -2.61125 -35.5656 -25.3296 16.6378 -27.6361 0.368473 9.90896 -0.00117926 -8.45539 -0.0207122 -5.47262 81.6965 -2.16101 23.0886 26.8339 14.8249 24.9928 -0.369625 9.91382 0.00119886 -8.83357 -20.4241 -3.35611 -7.91296 33.9309 32.3875 -24.0661 -17.6145 -2.80273 6.44857e-013 1.88925e-011 -6.84773e-012 
